<svg width="17" height="17" viewBox="0 0 32 32" fill="none" xmlns="http://www.w3.org/2000/svg">
<path fill-rule="evenodd" clip-rule="evenodd" d="M17.3206 18.4283L14.9635 20.7853C13.9913 21.7576 12.4003 21.7576 11.428 20.7853C10.4557 19.813 10.4557 18.2221 11.428 17.2498L13.785 14.8928L12.6065 13.7142L10.2495 16.0713C8.62316 17.6976 8.62316 20.3375 10.2495 21.9638C11.8758 23.5902 14.5157 23.5902 16.1421 21.9638L18.4991 19.6068L17.3206 18.4283ZM16.1421 10.1787L13.7851 12.5357L14.9636 13.7142L17.3206 11.3572C18.2929 10.3849 19.8839 10.3849 20.8562 11.3572C21.8284 12.3294 21.8284 13.9204 20.8562 14.8927L18.4991 17.2497L19.6776 18.4282L22.0347 16.0712C23.661 14.4449 23.661 11.805 22.0347 10.1787C20.4083 8.55231 17.7685 8.55231 16.1421 10.1787ZM17.9098 13.125L13.1958 17.8391L14.3743 19.0176L19.0883 14.3035L17.9098 13.125Z" fill="white"/>
<circle cx="16" cy="16" r="15" stroke="white" stroke-width="2"/>
</svg>

