<svg width="18" height="18" viewBox="0 0 15 15" fill="none" xmlns="http://www.w3.org/2000/svg">
<path fill-rule="evenodd" clip-rule="evenodd" d="M7.47135 14.9999L7.47806 15H7.47574L7.47135 14.9999ZM7.52426 15H7.52194L7.52865 14.9999L7.52426 15ZM7.44844 14.9998L7.45567 14.9999H7.45151L7.44844 14.9998ZM7.54849 14.9999H7.54433L7.55156 14.9998L7.54849 14.9999ZM7.42635 14.9996L7.43118 14.9997L7.42731 14.9996H7.42635ZM7.57269 14.9996L7.56882 14.9997L7.57365 14.9996H7.57269ZM7.59688 14.9994L7.59519 14.9994L7.60172 14.9993L7.59688 14.9994ZM7.39828 14.9993L7.40481 14.9994L7.40312 14.9994L7.39828 14.9993ZM7.62105 14.999L7.6171 14.9991L7.62516 14.999L7.62105 14.999ZM7.37484 14.999L7.3829 14.9991L7.37895 14.999L7.37484 14.999ZM7.6452 14.9986L7.63986 14.9987L7.64731 14.9986L7.6452 14.9986ZM7.3527 14.9986L7.36014 14.9987L7.3548 14.9986L7.3527 14.9986ZM7.32524 14.998L7.33184 14.9982L7.33066 14.9981L7.32524 14.998ZM7.66934 14.9981L7.66816 14.9982L7.67476 14.998L7.66934 14.9981ZM7.30116 14.9974L7.31021 14.9976L7.30655 14.9975L7.30116 14.9974ZM7.69345 14.9975L7.68979 14.9976L7.69884 14.9974L7.69345 14.9975ZM7.71756 14.9969L7.71167 14.9971L7.72093 14.9968L7.71756 14.9969ZM7.27907 14.9968L7.28833 14.9971L7.28244 14.9969L7.27907 14.9968ZM7.25798 14.9962L7.26457 14.9964L7.25836 14.9962L7.25268 14.996L7.25798 14.9962ZM7.74164 14.9962L7.73543 14.9964L7.74202 14.9962L7.74732 14.996L7.74164 14.9962ZM7.76569 14.9954L7.76241 14.9955L7.77252 14.9951L7.76569 14.9954ZM7.22748 14.9951L7.23759 14.9955L7.23431 14.9954L7.22748 14.9951ZM7.20554 14.9943L7.21614 14.9947L7.21025 14.9945L7.20554 14.9943ZM7.78975 14.9945L7.78386 14.9947L7.79446 14.9943L7.78975 14.9945ZM7.184 14.9934L7.19438 14.9939L7.18626 14.9936L7.184 14.9934ZM7.81374 14.9936L7.80562 14.9939L7.816 14.9934L7.81374 14.9936ZM7.15383 14.9921L7.16496 14.9926L7.16224 14.9925L7.15383 14.9921ZM7.83776 14.9925L7.83504 14.9926L7.84617 14.9921L7.83776 14.9925ZM7.13218 14.9911L7.14372 14.9917L7.13827 14.9914L7.13218 14.9911ZM7.86173 14.9914L7.85628 14.9917L7.86782 14.9911L7.86173 14.9914ZM7.11085 14.99L7.12248 14.9906L7.11431 14.9902L7.11085 14.99ZM7.88569 14.9902L7.87752 14.9906L7.88915 14.99L7.88569 14.9902ZM7.90966 14.989L7.89905 14.9895L7.90846 14.989L7.91953 14.9884L7.90966 14.989ZM7.09154 14.989L7.10095 14.9895L7.09034 14.989L7.08047 14.9884L7.09154 14.989ZM7.93356 14.9876L7.92888 14.9879L7.94077 14.9872L7.93356 14.9876ZM7.05923 14.9872L7.07112 14.9879L7.06644 14.9876L7.05923 14.9872ZM7.03808 14.986L7.04994 14.9867L7.04253 14.9863L7.03808 14.986ZM7.95747 14.9863L7.95006 14.9867L7.96192 14.986L7.95747 14.9863ZM7.01789 14.9847L7.02858 14.9854L7.01862 14.9848L7.0086 14.9841L7.01789 14.9847ZM7.98138 14.9848L7.97142 14.9854L7.98211 14.9847L7.9914 14.9841L7.98138 14.9848ZM8.00522 14.9832L8.00165 14.9834L8.01299 14.9827L8.00522 14.9832ZM6.98701 14.9827L6.99835 14.9834L6.99478 14.9832L6.98701 14.9827ZM6.96589 14.9812L6.97702 14.982L6.97093 14.9816L6.96589 14.9812ZM8.02907 14.9816L8.02298 14.982L8.03411 14.9812L8.02907 14.9816ZM6.94482 14.9797L6.95505 14.9805L6.94711 14.9799L6.94482 14.9797ZM8.05289 14.9799L8.04495 14.9805L8.05518 14.9797L8.05289 14.9799ZM6.91649 14.9776L6.92546 14.9783L6.92329 14.9781L6.91649 14.9776ZM8.07671 14.9781L8.07454 14.9783L8.08351 14.9776L8.07671 14.9781ZM8.10047 14.9763L8.09619 14.9766L8.1053 14.9759L8.10047 14.9763ZM6.8947 14.9759L6.90381 14.9766L6.89953 14.9763L6.8947 14.9759ZM6.87346 14.9741L6.88119 14.9748L6.87574 14.9743L6.87346 14.9741ZM8.12426 14.9743L8.11881 14.9748L8.12654 14.9741L8.12426 14.9743ZM6.85008 14.9722L6.85239 14.9724L6.85201 14.9723L6.85008 14.9722ZM8.14799 14.9723L8.14761 14.9724L8.14992 14.9722L8.14799 14.9723ZM8.17172 14.9703L8.16961 14.9704L8.17491 14.97L8.17172 14.9703ZM6.82509 14.97L6.83039 14.9704L6.82828 14.9703L6.82509 14.97ZM6.80312 14.968L6.80707 14.9684L6.80461 14.9681L6.80312 14.968ZM8.19539 14.9681L8.19293 14.9684L8.19688 14.968L8.19539 14.9681ZM6.32812 14.9088C2.74456 14.3455 0 11.2407 0 7.5C0 3.36064 3.36064 0 7.5 0C11.6394 0 15 3.36064 15 7.5C15 11.2407 12.2554 14.3455 8.67188 14.9088V9.66797H10.4194L10.752 7.5H8.67188V6.09313C8.67188 5.50002 8.96244 4.92188 9.89411 4.92188H10.8398V3.07617C10.8398 3.07617 9.98156 2.92969 9.16099 2.92969C7.44782 2.92969 6.32812 3.96797 6.32812 5.84766V7.5H4.42383V9.66797H6.32812V14.9088Z" fill="white"/>
</svg>
