<svg width="180" height="10" viewBox="0 0 96 7" fill="none" xmlns="http://www.w3.org/2000/svg">
<path d="M1.10694 6V3.824H3.02694V2.8H1.10694V1.648H3.41094V0.624H0.0829381V6H1.10694ZM6.79419 0.496C5.24219 0.496 3.97819 1.76 3.97819 3.312C3.97819 4.864 5.24219 6.128 6.79419 6.128C8.34619 6.128 9.61019 4.864 9.61019 3.312C9.61019 1.76 8.34619 0.496 6.79419 0.496ZM6.79419 5.104C5.80219 5.104 5.00219 4.304 5.00219 3.312C5.00219 2.32 5.80219 1.52 6.79419 1.52C7.78619 1.52 8.58619 2.32 8.58619 3.312C8.58619 4.304 7.78619 5.104 6.79419 5.104ZM11.4563 4.976V0.624H10.4323V6H13.6323V4.976H11.4563ZM15.5451 4.976V0.624H14.5211V6H17.7211V4.976H15.5451ZM21.0448 0.496C19.4928 0.496 18.2288 1.76 18.2288 3.312C18.2288 4.864 19.4928 6.128 21.0448 6.128C22.5968 6.128 23.8608 4.864 23.8608 3.312C23.8608 1.76 22.5968 0.496 21.0448 0.496ZM21.0448 5.104C20.0528 5.104 19.2528 4.304 19.2528 3.312C19.2528 2.32 20.0528 1.52 21.0448 1.52C22.0368 1.52 22.8368 2.32 22.8368 3.312C22.8368 4.304 22.0368 5.104 21.0448 5.104ZM28.3291 0.624H27.4331L26.4091 4.208L25.1291 0.624H23.9771L25.8971 6H26.9211L27.8811 2.672L28.8411 6H29.8651L31.7851 0.624H30.6331L29.3531 4.208L28.3291 0.624ZM38.3603 0.624V2.8H36.0563V0.624H35.0323V6H36.0563V3.824H38.3603V6H39.3843V0.624H38.3603ZM43.7273 0.624V3.824C43.7273 4.592 43.2153 5.104 42.5753 5.104C41.9353 5.104 41.4233 4.592 41.4233 3.824V0.624H40.3993V3.696C40.3993 5.112 41.1673 6.128 42.5753 6.128C43.9513 6.128 44.7513 5.112 44.7513 3.696V0.624H43.7273ZM47.5485 0.624H45.7645V6H47.5485C49.3485 6 50.3725 4.8 50.3725 3.312C50.3725 1.824 49.3965 0.624 47.5485 0.624ZM47.7325 4.976H46.7885V1.648H47.7325C48.6925 1.648 49.3485 2.392 49.3485 3.312C49.3485 4.232 48.6925 4.976 47.7325 4.976ZM52.221 4.976V0.624H51.197V6H54.397V4.976H52.221ZM63.2114 0.624H62.1874L60.7794 4.08L59.3714 0.624H58.3474L57.5794 6H58.6674L59.1154 2.48L60.5234 6H61.0354L62.4434 2.48L62.8914 6H63.9794L63.2114 0.624ZM68.0695 0.624V3.824C68.0695 4.592 67.5575 5.104 66.9175 5.104C66.2775 5.104 65.7655 4.592 65.7655 3.824V0.624H64.7415V3.696C64.7415 5.112 65.5095 6.128 66.9175 6.128C68.2935 6.128 69.0935 5.112 69.0935 3.696V0.624H68.0695ZM72.1547 2.736C71.3787 2.608 71.0667 2.472 71.0667 2.104C71.0667 1.672 71.5467 1.52 72.0907 1.52C72.8667 1.52 73.3947 1.928 73.5147 2.032L73.9467 1.152C73.1627 0.512 72.3467 0.496 72.1067 0.496C70.7707 0.496 70.0427 1.28 70.0427 2.176C70.0427 2.992 70.5627 3.56 72.0907 3.792C72.7947 3.896 73.1787 4.088 73.1787 4.464C73.1787 4.84 72.7707 5.104 72.0587 5.104C71.5467 5.104 70.8347 4.872 70.3627 4.336L69.8507 5.232C69.9467 5.328 70.6667 6.128 72.0427 6.128C73.4667 6.128 74.2027 5.36 74.2027 4.4C74.2027 3.248 73.3307 2.928 72.1547 2.736ZM76.1179 6V0.624H75.0939V6H76.1179ZM79.8222 5.104C78.7982 5.104 77.9662 4.304 77.9662 3.312C77.9662 2.32 78.7982 1.52 79.8222 1.52C80.3422 1.52 80.8142 1.728 81.1582 2.064L81.5502 1.136C81.0942 0.72 80.4062 0.496 79.8062 0.496C78.2302 0.496 76.9422 1.76 76.9422 3.312C76.9422 4.864 78.2302 6.128 79.8062 6.128C80.4062 6.128 81.0942 5.896 81.5502 5.48L81.1582 4.552C80.8222 4.896 80.3502 5.104 79.8222 5.104ZM87.5451 0.496C85.9931 0.496 84.7291 1.76 84.7291 3.312C84.7291 4.864 85.9931 6.128 87.5451 6.128C89.0971 6.128 90.3611 4.864 90.3611 3.312C90.3611 1.76 89.0971 0.496 87.5451 0.496ZM87.5451 5.104C86.5531 5.104 85.7531 4.304 85.7531 3.312C85.7531 2.32 86.5531 1.52 87.5451 1.52C88.5371 1.52 89.3371 2.32 89.3371 3.312C89.3371 4.304 88.5371 5.104 87.5451 5.104ZM94.8952 0.624V4.336L92.2072 0.624H91.1832V6H92.2072V2.288L94.8952 6H95.9192V0.624H94.8952Z" fill="white"/>
</svg>
