<svg width="160" height="56" viewBox="0 0 160 56" fill="none" xmlns="http://www.w3.org/2000/svg">
<path fill-rule="evenodd" clip-rule="evenodd" d="M102.452 55.9999L102.463 56H102.46L102.452 55.9999ZM102.54 56H102.537L102.548 55.9999L102.54 56ZM102.414 55.9997L102.426 55.9998H102.419L102.414 55.9997ZM102.581 55.9998H102.574L102.586 55.9997L102.581 55.9998ZM102.377 55.9994L102.385 55.9995L102.379 55.9994H102.377ZM102.621 55.9994L102.615 55.9995L102.623 55.9994H102.621ZM102.661 55.999L102.659 55.999L102.67 55.9989L102.661 55.999ZM102.33 55.9989L102.341 55.999L102.339 55.999L102.33 55.9989ZM102.702 55.9984L102.695 55.9985L102.709 55.9983L102.702 55.9984ZM102.291 55.9983L102.305 55.9985L102.298 55.9984L102.291 55.9983ZM102.742 55.9977L102.733 55.9979L102.746 55.9976L102.742 55.9977ZM102.254 55.9976L102.267 55.9979L102.258 55.9977L102.254 55.9976ZM102.209 55.9967L102.22 55.9969L102.218 55.9969L102.209 55.9967ZM102.782 55.9969L102.78 55.9969L102.791 55.9967L102.782 55.9969ZM102.169 55.9957L102.184 55.996L102.178 55.9959L102.169 55.9957ZM102.822 55.9959L102.816 55.996L102.831 55.9957L102.822 55.9959ZM102.863 55.9948L102.853 55.9951L102.868 55.9947L102.863 55.9948ZM102.132 55.9947L102.147 55.9951L102.137 55.9948L102.132 55.9947ZM102.097 55.9936L102.108 55.9939L102.097 55.9936L102.088 55.9933L102.097 55.9936ZM102.903 55.9936L102.892 55.9939L102.903 55.9936L102.912 55.9933L102.903 55.9936ZM102.943 55.9923L102.937 55.9925L102.954 55.9919L102.943 55.9923ZM102.046 55.9919L102.063 55.9925L102.057 55.9923L102.046 55.9919ZM102.009 55.9905L102.027 55.9912L102.017 55.9908L102.009 55.9905ZM102.983 55.9908L102.973 55.9912L102.991 55.9905L102.983 55.9908ZM101.973 55.9891L101.991 55.9898L101.977 55.9893L101.973 55.9891ZM103.023 55.9893L103.009 55.9898L103.027 55.9891L103.023 55.9893ZM101.923 55.9869L101.942 55.9877L101.937 55.9875L101.923 55.9869ZM103.063 55.9875L103.058 55.9877L103.077 55.9869L103.063 55.9875ZM101.887 55.9852L101.906 55.9861L101.897 55.9857L101.887 55.9852ZM103.103 55.9857L103.094 55.9861L103.113 55.9852L103.103 55.9857ZM101.851 55.9834L101.871 55.9844L101.857 55.9837L101.851 55.9834ZM103.143 55.9837L103.129 55.9844L103.149 55.9834L103.143 55.9837ZM103.183 55.9816L103.165 55.9826L103.181 55.9817L103.199 55.9807L103.183 55.9816ZM101.819 55.9817L101.835 55.9826L101.817 55.9816L101.801 55.9807L101.819 55.9817ZM103.223 55.9794L103.215 55.9798L103.235 55.9787L103.223 55.9794ZM101.765 55.9787L101.785 55.9798L101.777 55.9794L101.765 55.9787ZM101.73 55.9766L101.75 55.9778L101.738 55.9771L101.73 55.9766ZM103.262 55.9771L103.25 55.9778L103.27 55.9766L103.262 55.9771ZM101.696 55.9745L101.714 55.9756L101.698 55.9746L101.681 55.9735L101.696 55.9745ZM103.302 55.9746L103.286 55.9756L103.304 55.9745L103.319 55.9735L103.302 55.9746ZM103.342 55.972L103.336 55.9724L103.355 55.9711L103.342 55.972ZM101.645 55.9711L101.664 55.9724L101.658 55.972L101.645 55.9711ZM101.61 55.9687L101.628 55.97L101.618 55.9693L101.61 55.9687ZM103.382 55.9693L103.372 55.97L103.39 55.9687L103.382 55.9693ZM101.575 55.9662L101.592 55.9674L101.579 55.9665L101.575 55.9662ZM103.421 55.9665L103.408 55.9674L103.425 55.9662L103.421 55.9665ZM101.527 55.9626L101.542 55.9638L101.539 55.9635L101.527 55.9626ZM103.461 55.9635L103.458 55.9638L103.473 55.9626L103.461 55.9635ZM103.501 55.9604L103.494 55.961L103.509 55.9598L103.501 55.9604ZM101.491 55.9598L101.506 55.961L101.499 55.9604L101.491 55.9598ZM101.456 55.9569L101.469 55.958L101.46 55.9572L101.456 55.9569ZM103.54 55.9572L103.531 55.958L103.544 55.9569L103.54 55.9572ZM101.417 55.9536L101.421 55.954L101.42 55.9539L101.417 55.9536ZM103.58 55.9539L103.579 55.954L103.583 55.9536L103.58 55.9539ZM103.62 55.9504L103.616 55.9507L103.625 55.95L103.62 55.9504ZM101.375 55.95L101.384 55.9507L101.38 55.9504L101.375 55.95ZM101.339 55.9466L101.345 55.9473L101.341 55.9469L101.339 55.9466ZM103.659 55.9469L103.655 55.9473L103.661 55.9466L103.659 55.9469ZM100.547 55.848C94.5743 54.9092 90 49.7346 90 43.5C90 36.6011 95.6011 31 102.5 31C109.399 31 115 36.6011 115 43.5C115 49.7346 110.426 54.9092 104.453 55.848V47.1133H107.366L107.92 43.5H104.453V41.1552C104.453 40.1667 104.937 39.2031 106.49 39.2031H108.066V36.127C108.066 36.127 106.636 35.8828 105.268 35.8828C102.413 35.8828 100.547 37.6133 100.547 40.7461V43.5H97.373V47.1133H100.547V55.848Z" fill="white"/>
<path fill-rule="evenodd" clip-rule="evenodd" d="M12.5 31C19.3989 31 25 36.6011 25 43.5C25 50.3989 19.3989 56 12.5 56C5.60107 56 0 50.3989 0 43.5C0 36.6011 5.60107 31 12.5 31ZM10.2983 50.1483C15.8297 50.1483 18.8542 45.5648 18.8542 41.5925C18.8542 41.4616 18.8542 41.3306 18.8479 41.2059C19.4341 40.7818 19.9455 40.2518 20.3508 39.6469C19.8145 39.8838 19.2345 40.046 18.6234 40.1208C19.247 39.7466 19.7209 39.1604 19.9455 38.4558C19.3655 38.7988 18.7232 39.0482 18.0372 39.1854C17.4884 38.5992 16.7089 38.2375 15.8421 38.2375C14.1833 38.2375 12.8364 39.5845 12.8364 41.2433C12.8364 41.4803 12.8613 41.711 12.9174 41.9292C10.4168 41.8045 8.20298 40.6072 6.71885 38.7863C6.46314 39.2291 6.31348 39.7466 6.31348 40.2954C6.31348 41.3368 6.84355 42.2598 7.65425 42.796C7.16157 42.7836 6.7001 42.6464 6.29478 42.4219V42.4593C6.29478 43.9186 7.32993 45.1283 8.70811 45.409C8.45869 45.4775 8.19053 45.515 7.91616 45.515C7.7228 45.515 7.53574 45.4963 7.34868 45.4588C7.72905 46.6562 8.83906 47.523 10.1549 47.5479C9.12593 48.3524 7.82886 48.8326 6.41948 48.8326C6.17627 48.8326 5.93931 48.8201 5.70234 48.7889C7.01816 49.6495 8.6021 50.1483 10.2983 50.1483Z" fill="white"/>
<path fill-rule="evenodd" clip-rule="evenodd" d="M147.5 31C154.399 31 160 36.6011 160 43.5C160 50.3989 154.399 56 147.5 56C140.601 56 135 50.3989 135 43.5C135 36.6011 140.601 31 147.5 31ZM154.986 39.7392C154.806 39.0668 154.277 38.5375 153.605 38.3578C152.386 38.0312 147.5 38.0312 147.5 38.0312C147.5 38.0312 142.614 38.0312 141.395 38.3578C140.723 38.5375 140.194 39.0668 140.014 39.7392C139.688 40.9577 139.688 43.5001 139.688 43.5001C139.688 43.5001 139.688 46.0424 140.014 47.2608C140.194 47.9332 140.723 48.4627 141.395 48.6423C142.614 48.9688 147.5 48.9688 147.5 48.9688C147.5 48.9688 152.386 48.9688 153.605 48.6423C154.277 48.4627 154.806 47.9332 154.986 47.2608C155.312 46.0424 155.312 43.5001 155.312 43.5001C155.312 43.5001 155.312 40.9577 154.986 39.7392ZM145.937 45.8439V41.1563L149.997 43.5001L145.937 45.8439Z" fill="white"/>
<path d="M58.9803 42.0208C59.8535 42.8939 59.8535 44.3095 58.9803 45.1826C58.1072 46.0557 56.6916 46.0557 55.8185 45.1826C54.9454 44.3095 54.9454 42.8939 55.8185 42.0208C56.6916 41.1477 58.1072 41.1477 58.9803 42.0208Z" fill="white"/>
<path d="M60.194 38.1134H54.6047C53.7917 38.1134 53.0803 38.3675 52.623 38.8248C52.1657 39.2821 51.9116 39.9935 51.9116 40.8065V46.3958C51.9116 47.2088 52.1657 47.9202 52.6738 48.4283C53.1819 48.8856 53.8425 49.1397 54.6555 49.1397H60.194C61.007 49.1397 61.7184 48.8856 62.1757 48.4283C62.6838 47.971 62.9379 47.2596 62.9379 46.4466V40.8573C62.9379 40.0443 62.6838 39.3837 62.2265 38.8756C61.7184 38.3675 61.0578 38.1134 60.194 38.1134ZM57.3994 47.0564C55.4685 47.0564 53.9441 45.4812 53.9441 43.6011C53.9441 41.6703 55.5193 40.1459 57.3994 40.1459C59.2794 40.1459 60.9054 41.6703 60.9054 43.6011C60.9054 45.532 59.3302 47.0564 57.3994 47.0564ZM61.007 40.8065C60.5497 40.8065 60.194 40.4508 60.194 39.9935C60.194 39.5361 60.5497 39.1805 61.007 39.1805C61.4643 39.1805 61.82 39.5361 61.82 39.9935C61.82 40.4508 61.4643 40.8065 61.007 40.8065Z" fill="white"/>
<path d="M57.4998 31C50.5894 31 45 36.5894 45 43.4998C45 50.4103 50.5894 55.9997 57.4998 55.9997C64.4103 55.9997 69.9997 50.4103 69.9997 43.4998C70.0505 36.5894 64.4103 31 57.4998 31ZM64.1562 46.4469C64.1562 47.6156 63.7497 48.6319 63.0384 49.3432C62.327 50.0546 61.3108 50.4103 60.1929 50.4103H54.6543C53.5365 50.4103 52.5202 50.0546 51.8089 49.3432C51.0467 48.6319 50.691 47.6156 50.691 46.4469V40.8576C50.691 38.5202 52.2662 36.8942 54.6543 36.8942H60.2437C61.4124 36.8942 62.3778 37.3007 63.0892 38.0121C63.8006 38.7235 64.1562 39.6889 64.1562 40.8576V46.4469Z" fill="white"/>
<path d="M17.0984 4.056V5.624H17.9944V11H19.7864V5.624H21.3544V4.056H19.7864C19.7864 3.048 19.7864 2.39 21.3544 2.712V1.144C21.0184 1.004 20.7664 0.92 20.2344 0.92C18.3864 0.92 18.0084 2.488 17.9944 4.056H17.0984ZM25.7163 3.832C23.6723 3.832 22.0203 5.484 22.0203 7.528C22.0203 9.572 23.6723 11.224 25.7163 11.224C27.7603 11.224 29.4123 9.572 29.4123 7.528C29.4123 5.484 27.7603 3.832 25.7163 3.832ZM25.7163 9.432C24.6663 9.432 23.8123 8.578 23.8123 7.528C23.8123 6.478 24.6663 5.624 25.7163 5.624C26.7663 5.624 27.6203 6.478 27.6203 7.528C27.6203 8.578 26.7663 9.432 25.7163 9.432ZM30.5347 1.144V11H32.3267V1.144H30.5347ZM34.0073 1.144V11H35.7993V1.144H34.0073ZM40.6186 3.832C38.5746 3.832 36.9226 5.484 36.9226 7.528C36.9226 9.572 38.5746 11.224 40.6186 11.224C42.6626 11.224 44.3146 9.572 44.3146 7.528C44.3146 5.484 42.6626 3.832 40.6186 3.832ZM40.6186 9.432C39.5686 9.432 38.7146 8.578 38.7146 7.528C38.7146 6.478 39.5686 5.624 40.6186 5.624C41.6686 5.624 42.5226 6.478 42.5226 7.528C42.5226 8.578 41.6686 9.432 40.6186 9.432ZM53.165 4.056L51.933 8.536L50.589 4.056H49.245L47.901 8.536L46.669 4.056H44.653L47.005 11H48.629L49.917 7.192L51.205 11H52.829L55.181 4.056H53.165ZM66.2591 1.592V5.4H62.2271V1.592H60.4351V11H62.2271V7.192H66.2591V11H68.0511V1.592H66.2591ZM75.4413 1.592V7.192C75.4413 8.536 74.5453 9.432 73.4253 9.432C72.3053 9.432 71.4093 8.536 71.4093 7.192V1.592H69.6173V6.968C69.6173 9.446 70.9613 11.224 73.4253 11.224C75.8333 11.224 77.2333 9.446 77.2333 6.968V1.592H75.4413ZM81.9184 1.592H78.7964V11H81.9184C85.0684 11 86.8604 8.9 86.8604 6.296C86.8604 3.692 85.1524 1.592 81.9184 1.592ZM82.2404 9.208H80.5884V3.384H82.2404C83.9204 3.384 85.0684 4.686 85.0684 6.296C85.0684 7.906 83.9204 9.208 82.2404 9.208ZM89.8853 9.208V1.592H88.0933V11H93.6933V9.208H89.8853ZM108.699 1.592H106.907L104.443 7.64L101.979 1.592H100.187L98.8425 11H100.747L101.531 4.84L103.995 11H104.891L107.355 4.84L108.139 11H110.043L108.699 1.592ZM113.77 11.224C114.82 11.224 115.394 10.888 115.87 10.328V11H117.662V4.056H115.87V7.64C115.87 8.9 115.114 9.432 114.302 9.432C113.378 9.432 112.958 8.942 112.958 7.864V4.056H111.166V8.088C111.166 10.188 112.174 11.224 113.77 11.224ZM122.385 6.576C121.643 6.45 120.915 6.38 120.915 5.96C120.915 5.666 121.433 5.526 122.161 5.54C123.085 5.554 124.009 5.876 124.359 6.128L124.863 4.504C123.855 3.986 122.847 3.832 122.161 3.832C120.341 3.832 119.123 4.84 119.123 5.96C119.123 7.094 119.557 7.92 122.147 8.34C123.071 8.494 123.379 8.606 123.379 8.914C123.379 9.348 122.777 9.53 121.951 9.516C121.111 9.502 120.089 9.096 119.487 8.536L118.899 10.216C119.249 10.524 120.467 11.224 122.119 11.224C124.051 11.224 125.171 10.174 125.171 8.76C125.171 7.878 124.737 6.954 122.385 6.576ZM127.298 3.16C127.984 3.16 128.53 2.614 128.53 1.928C128.53 1.242 127.984 0.695999 127.298 0.695999C126.612 0.695999 126.066 1.242 126.066 1.928C126.066 2.614 126.612 3.16 127.298 3.16ZM126.402 11H128.194V4.056H126.402V11ZM133.237 9.432C131.907 9.432 131.109 8.578 131.109 7.528C131.109 6.478 131.921 5.624 133.237 5.624C133.867 5.624 134.455 5.876 134.847 6.268L135.589 4.658C134.945 4.084 134.063 3.832 133.181 3.832C130.773 3.832 129.317 5.484 129.317 7.528C129.317 9.572 130.745 11.224 133.181 11.224C134.063 11.224 135.029 10.944 135.589 10.398L134.847 8.802C134.455 9.194 133.867 9.432 133.237 9.432ZM144.429 3.832C142.385 3.832 140.733 5.484 140.733 7.528C140.733 9.572 142.385 11.224 144.429 11.224C146.473 11.224 148.125 9.572 148.125 7.528C148.125 5.484 146.473 3.832 144.429 3.832ZM144.429 9.432C143.379 9.432 142.525 8.578 142.525 7.528C142.525 6.478 143.379 5.624 144.429 5.624C145.479 5.624 146.333 6.478 146.333 7.528C146.333 8.578 145.479 9.432 144.429 9.432ZM153.14 3.832C152.09 3.832 151.516 4.168 151.04 4.728V4.056H149.248V11H151.04V7.416C151.04 6.156 151.796 5.624 152.608 5.624C153.532 5.624 153.952 6.114 153.952 7.192V11H155.744V6.968C155.744 4.868 154.736 3.832 153.14 3.832ZM158.21 6.072C158.84 6.072 159.33 5.582 159.33 4.952C159.33 4.322 158.84 3.832 158.21 3.832C157.58 3.832 157.09 4.322 157.09 4.952C157.09 5.582 157.58 6.072 158.21 6.072ZM158.21 11.224C158.84 11.224 159.33 10.734 159.33 10.104C159.33 9.474 158.84 8.984 158.21 8.984C157.58 8.984 157.09 9.474 157.09 10.104C157.09 10.734 157.58 11.224 158.21 11.224Z" fill="white"/>
</svg>
