<svg width="18" height="18" viewBox="0 0 15 15" fill="none" xmlns="http://www.w3.org/2000/svg">
<path fill-rule="evenodd" clip-rule="evenodd" d="M7.5 0C11.6394 0 15 3.36064 15 7.5C15 11.6394 11.6394 15 7.5 15C3.36064 15 0 11.6394 0 7.5C0 3.36064 3.36064 0 7.5 0ZM6.17897 11.489C9.49781 11.489 11.3125 8.73891 11.3125 6.35552C11.3125 6.27694 11.3125 6.19837 11.3087 6.12352C11.6604 5.8691 11.9673 5.55105 12.2105 5.18813C11.8887 5.3303 11.5407 5.4276 11.174 5.47248C11.5482 5.24798 11.8326 4.89627 11.9673 4.47349C11.6193 4.67927 11.2339 4.82892 10.8223 4.91124C10.4931 4.55953 10.0254 4.34253 9.50528 4.34253C8.51001 4.34253 7.70183 5.15071 7.70183 6.14599C7.70183 6.28816 7.7168 6.42659 7.75046 6.55755C6.25008 6.48272 4.92179 5.76434 4.03131 4.67177C3.87788 4.93743 3.78809 5.24798 3.78809 5.57725C3.78809 6.20209 4.10613 6.75586 4.59255 7.07763C4.29694 7.07016 4.02006 6.98783 3.77687 6.85315V6.8756C3.77687 7.75113 4.39796 8.47699 5.22486 8.64539C5.07521 8.68652 4.91432 8.70899 4.7497 8.70899C4.63368 8.70899 4.52145 8.69777 4.40921 8.6753C4.63743 9.39369 5.30344 9.9138 6.09293 9.92874C5.47556 10.4114 4.69731 10.6995 3.85169 10.6995C3.70576 10.6995 3.56358 10.692 3.42141 10.6733C4.2109 11.1897 5.16126 11.489 6.17897 11.489Z" fill="white"/>
</svg>
