<svg width="18" height="18" viewBox="0 0 15 15" fill="none" xmlns="http://www.w3.org/2000/svg">
<path d="M8.38813 6.61246C8.912 7.13633 8.912 7.98568 8.38813 8.50955C7.86427 9.03342 7.01491 9.03342 6.49105 8.50955C5.96718 7.98568 5.96718 7.13633 6.49105 6.61246C7.01491 6.08859 7.86427 6.08859 8.38813 6.61246Z" fill="white"/>
<path d="M9.11642 4.26804H5.7628C5.27501 4.26804 4.84818 4.42047 4.5738 4.69486C4.29941 4.96925 4.14697 5.39607 4.14697 5.88387V9.23748C4.14697 9.72527 4.29941 10.1521 4.60428 10.457C4.90916 10.7314 5.30549 10.8838 5.79329 10.8838H9.11642C9.60421 10.8838 10.031 10.7314 10.3054 10.457C10.6103 10.1826 10.7627 9.75576 10.7627 9.26796V5.91435C10.7627 5.42656 10.6103 5.03022 10.3359 4.72535C10.031 4.42047 9.6347 4.26804 9.11642 4.26804ZM7.43961 9.63381C6.28109 9.63381 5.36647 8.6887 5.36647 7.56067C5.36647 6.40215 6.31158 5.48753 7.43961 5.48753C8.56764 5.48753 9.54324 6.40215 9.54324 7.56067C9.54324 8.71919 8.59813 9.63381 7.43961 9.63381ZM9.60422 5.88387C9.32983 5.88387 9.11642 5.67045 9.11642 5.39607C9.11642 5.12168 9.32983 4.90827 9.60422 4.90827C9.8786 4.90827 10.092 5.12168 10.092 5.39607C10.092 5.67045 9.8786 5.88387 9.60422 5.88387Z" fill="white"/>
<path d="M7.4999 0C3.35361 0 0 3.35361 0 7.4999C0 11.6462 3.35361 14.9998 7.4999 14.9998C11.6462 14.9998 14.9998 11.6462 14.9998 7.4999C15.0303 3.35361 11.6462 0 7.4999 0ZM11.4937 9.26817C11.4937 9.96938 11.2498 10.5791 10.823 11.0059C10.3962 11.4328 9.78645 11.6462 9.11573 11.6462H5.7926C5.12188 11.6462 4.51213 11.4328 4.08531 11.0059C3.628 10.5791 3.41459 9.96938 3.41459 9.26817V5.91455C3.41459 4.51213 4.3597 3.53654 5.7926 3.53654H9.14622C9.84743 3.53654 10.4267 3.78044 10.8535 4.20726C11.2803 4.63408 11.4937 5.21334 11.4937 5.91455V9.26817Z" fill="white"/>
</svg>
