<svg width="15" height="15" viewBox="0 0 15 15" fill="none" xmlns="http://www.w3.org/2000/svg">
<path fill-rule="evenodd" clip-rule="evenodd" d="M0 7.5C0 3.36 3.36 0 7.5 0C11.64 0 15 3.36 15 7.5C15 11.64 11.64 15 7.5 15C3.36 15 0 11.64 0 7.5ZM6 10.5C5.58579 10.5 5.25 10.1642 5.25 9.75V5.25C5.25 4.83579 5.58579 4.5 6 4.5C6.41421 4.5 6.75 4.83579 6.75 5.25V9.75C6.75 10.1642 6.41421 10.5 6 10.5ZM7.5 13.5C4.1925 13.5 1.5 10.8075 1.5 7.5C1.5 4.1925 4.1925 1.5 7.5 1.5C10.8075 1.5 13.5 4.1925 13.5 7.5C13.5 10.8075 10.8075 13.5 7.5 13.5ZM9 10.5C8.58579 10.5 8.25 10.1642 8.25 9.75V5.25C8.25 4.83579 8.58579 4.5 9 4.5C9.41421 4.5 9.75 4.83579 9.75 5.25V9.75C9.75 10.1642 9.41421 10.5 9 10.5Z" fill="#01A0C6"/>
</svg>
