<svg width="17" height="17" viewBox="0 0 50 50" fill="none" xmlns="http://www.w3.org/2000/svg">
<path fill-rule="evenodd" clip-rule="evenodd" d="M25 0.000244141C11.2 0.000244141 0 11.2002 0 25.0002C0 38.8002 11.2 50.0002 25 50.0002C38.8 50.0002 50 38.8002 50 25.0002C50 11.2002 38.8 0.000244141 25 0.000244141ZM25 45.0002C13.975 45.0002 5 36.0252 5 25.0002C5 13.9752 13.975 5.00024 25 5.00024C36.025 5.00024 45 13.9752 45 25.0002C45 36.0252 36.025 45.0002 25 45.0002ZM35.0103 26.7309C36.3409 25.9605 36.3409 24.0395 35.0103 23.2691L22.0021 15.738C20.6687 14.9661 19 15.9282 19 17.4689V32.5311C19 34.0718 20.6687 35.0339 22.0021 34.262L35.0103 26.7309Z" fill="#01A0C6"/>
</svg>