<svg width="15" height="15" viewBox="0 0 15 15" fill="none" xmlns="http://www.w3.org/2000/svg">
<path fill-rule="evenodd" clip-rule="evenodd" d="M7.5 0C3.36 0 0 3.36 0 7.5C0 11.64 3.36 15 7.5 15C11.64 15 15 11.64 15 7.5C15 3.36 11.64 0 7.5 0ZM7.5 13.5C4.1925 13.5 1.5 10.8075 1.5 7.5C1.5 4.1925 4.1925 1.5 7.5 1.5C10.8075 1.5 13.5 4.1925 13.5 7.5C13.5 10.8075 10.8075 13.5 7.5 13.5ZM10.6526 7.93264C10.9852 7.74006 10.9852 7.2598 10.6526 7.06721L6.45052 4.63444C6.11719 4.44145 5.7 4.68198 5.7 5.06715V9.9327C5.7 10.3179 6.11719 10.5584 6.45052 10.3654L10.6526 7.93264Z" fill="#01A0C6"/>
</svg>
