   <svg width="1440" height="54" viewBox="0 0 1440 54" fill="none" xmlns="http://www.w3.org/2000/svg">
<rect x="60" y="5.78571" width="14" height="42.4286" rx="7" fill="#F0047F"/>
<rect x="90" y="11.5714" width="14" height="29.8929" rx="7" fill="#F0047F"/>
<rect x="120" y="3.375" width="13" height="47.25" rx="6.5" fill="#F0047F"/>
<rect x="149" y="5.78571" width="13" height="42.4286" rx="6.5" fill="#F0047F"/>
<rect x="178" width="14" height="54" rx="7" fill="#F0047F"/>
<rect x="208" y="10.6071" width="15" height="32.7857" rx="7.5" fill="#F0047F"/>
<rect x="239" y="6.75" width="13" height="40.5" rx="6.5" fill="#F0047F"/>
<rect x="268" y="6.75" width="13" height="40.5" rx="6.5" fill="#F0047F"/>
<rect y="19.7679" width="14" height="13.5" rx="6.75" fill="#F0047F"/>
<rect x="30" y="13.9821" width="14" height="25.0714" rx="7" fill="#F0047F"/>
<rect x="654" y="5.78571" width="14" height="42.4286" rx="7" fill="white" fillOpacity="0.2"/>
<rect x="684" y="11.5714" width="14" height="29.8929" rx="7" fill="white" fillOpacity="0.2"/>
<rect x="714" y="3.375" width="13" height="47.25" rx="6.5" fill="white" fillOpacity="0.2"/>
<rect x="743" y="5.78571" width="13" height="42.4286" rx="6.5" fill="white" fillOpacity="0.2"/>
<rect x="772" width="14" height="54" rx="7" fill="white" fillOpacity="0.2"/>
<rect x="802" y="10.6071" width="15" height="32.7857" rx="7.5" fill="white" fillOpacity="0.2"/>
<rect x="833" y="6.75" width="13" height="40.5" rx="6.5" fill="white" fillOpacity="0.2"/>
<rect x="862" y="6.75" width="13" height="40.5" rx="6.5" fill="white" fillOpacity="0.2"/>
<rect x="594" y="19.7679" width="14" height="13.5" rx="6.75" fill="white" fillOpacity="0.2"/>
<rect x="624" y="13.9821" width="14" height="25.0714" rx="7" fill="white" fillOpacity="0.2"/>
<rect width="14" height="42.4286" rx="7" transform="matrix(-1 0 0 1 1409 5.78571)" fill="white" fillOpacity="0.2"/>
<rect width="14" height="29.8929" rx="7" transform="matrix(-1 0 0 1 1379 11.5714)" fill="white" fillOpacity="0.2"/>
<rect width="13" height="47.25" rx="6.5" transform="matrix(-1 0 0 1 1349 3.375)" fill="white" fillOpacity="0.2"/>
<rect width="13" height="42.4286" rx="6.5" transform="matrix(-1 0 0 1 1320 5.78571)" fill="white" fillOpacity="0.2"/>
<rect width="14" height="54" rx="7" transform="matrix(-1 0 0 1 1291 0)" fill="white" fillOpacity="0.2"/>
<rect width="15" height="32.7857" rx="7.5" transform="matrix(-1 0 0 1 1261 10.6071)" fill="white" fillOpacity="0.2"/>
<rect width="13" height="40.5" rx="6.5" transform="matrix(-1 0 0 1 1230 6.75)" fill="white" fillOpacity="0.2"/>
<rect width="13" height="40.5" rx="6.5" transform="matrix(-1 0 0 1 1201 6.75)" fill="white" fillOpacity="0.2"/>
<rect width="14" height="25.0714" rx="7" transform="matrix(-1 0 0 1 1439 13.9821)" fill="white" fillOpacity="0.2"/>
<rect width="14" height="42.4286" rx="7" transform="matrix(-1 0 0 1 518 5.78571)" fill="white" fillOpacity="0.2"/>
<rect width="14" height="29.8929" rx="7" transform="matrix(-1 0 0 1 488 11.5714)" fill="white" fillOpacity="0.2"/>
<rect width="13" height="47.25" rx="6.5" transform="matrix(-1 0 0 1 458 3.375)" fill="white" fillOpacity="0.2"/>
<rect width="13" height="42.4286" rx="6.5" transform="matrix(-1 0 0 1 429 5.78571)" fill="white" fillOpacity="0.2"/>
<rect width="14" height="54" rx="7" transform="matrix(-1 0 0 1 400 0)" fill="white" fillOpacity="0.2"/>
<rect width="15" height="32.7857" rx="7.5" transform="matrix(-1 0 0 1 370 10.6071)" fill="white" fillOpacity="0.2"/>
<rect width="13" height="40.5" rx="6.5" transform="matrix(-1 0 0 1 339 6.75)" fill="white" fillOpacity="0.2"/>
<rect width="13" height="40.5" rx="6.5" transform="matrix(-1 0 0 1 310 6.75)" fill="white" fillOpacity="0.2"/>
<rect width="14" height="13.5" rx="6.75" transform="matrix(-1 0 0 1 578 19.7679)" fill="white" fillOpacity="0.2"/>
<rect width="14" height="25.0714" rx="7" transform="matrix(-1 0 0 1 548 13.9821)" fill="white" fillOpacity="0.2"/>
<rect width="14" height="42.4286" rx="7" transform="matrix(-1 0 0 1 1112 5.78571)" fill="white" fillOpacity="0.2"/>
<rect width="14" height="29.8929" rx="7" transform="matrix(-1 0 0 1 1082 11.5714)" fill="white" fillOpacity="0.2"/>
<rect width="13" height="47.25" rx="6.5" transform="matrix(-1 0 0 1 1052 3.375)" fill="white" fillOpacity="0.2"/>
<rect width="13" height="42.4286" rx="6.5" transform="matrix(-1 0 0 1 1023 5.78571)" fill="white" fillOpacity="0.2"/>
<rect width="14" height="54" rx="7" transform="matrix(-1 0 0 1 994 0)" fill="white" fillOpacity="0.2"/>
<rect width="15" height="32.7857" rx="7.5" transform="matrix(-1 0 0 1 964 10.6071)" fill="white" fillOpacity="0.2"/>
<rect width="13" height="40.5" rx="6.5" transform="matrix(-1 0 0 1 933 6.75)" fill="white" fillOpacity="0.2"/>
<rect width="13" height="40.5" rx="6.5" transform="matrix(-1 0 0 1 904 6.75)" fill="white" fillOpacity="0.2"/>
<rect width="14" height="13.5" rx="6.75" transform="matrix(-1 0 0 1 1172 19.7679)" fill="white" fillOpacity="0.2"/>
<rect width="14" height="25.0714" rx="7" transform="matrix(-1 0 0 1 1142 13.9821)" fill="white" fillOpacity="0.2"/>
</svg>

