<svg width="17" height="17" viewBox="0 0 24 24" fill="none" xmlns="http://www.w3.org/2000/svg">
<path d="M20.8262 3.17178C20.631 3.36689 20.3153 3.36606 20.1122 3.17906C17.972 1.20777 15.13 0 11.9925 0C5.35835 0 0 5.37 0 12C0 18.63 5.35835 24 11.9925 24C17.3647 24 21.8801 20.4779 23.4166 15.6206C23.5152 15.309 23.2762 15 22.9493 15H20.8268C20.6147 15 20.4269 15.1344 20.3486 15.3315C19.0288 18.6523 15.7849 21 11.9925 21C7.02439 21 2.98687 16.965 2.98687 12C2.98687 7.035 7.02439 3 11.9925 3C14.3044 3 16.3837 3.89112 17.9666 5.32584C18.1706 5.51077 18.169 5.82739 17.9742 6.02204L14.3476 9.64634C14.0325 9.96127 14.2555 10.5 14.7011 10.5H23.5C23.7761 10.5 24 10.2761 24 10V1.20657C24 0.761196 23.4616 0.538079 23.1466 0.85291L20.8262 3.17178Z" fill="white"/>
</svg>
