<svg width="17" height="17" viewBox="0 0 17 17" fill="none" xmlns="http://www.w3.org/2000/svg">
<path fill-rule="evenodd" clip-rule="evenodd" d="M7.16355 4.72028L7.2826 4.84723C7.31165 4.87755 7.35807 4.87818 7.38634 4.84881L8.34216 3.88113V8.61977H8.65811V3.8401L9.68536 4.86748C9.71331 4.89638 9.75925 4.89575 9.78815 4.86575L9.91873 4.74085C9.94762 4.71101 9.94825 4.66317 9.92015 4.63411L8.73054 3.4445C8.72827 3.42837 8.72108 3.41271 8.70902 3.40013L8.58997 3.27318C8.56076 3.24286 8.51434 3.24223 8.48623 3.2716L7.16181 4.61244C7.13355 4.64181 7.1345 4.69013 7.16355 4.72028ZM5.81579 12.0541V6.68563H7.71053V6.36984H5.5V12.3698H11.5V6.36984H9.28947V6.68563H11.1842V12.0541H5.81579Z" fill="white"/>
<path d="M7.2826 4.84723L7.10023 5.01826L7.1021 5.02021L7.2826 4.84723ZM7.16355 4.72028L7.34592 4.54925L7.34359 4.54684L7.16355 4.72028ZM7.38634 4.84881L7.20846 4.67311L7.2062 4.67545L7.38634 4.84881ZM8.34216 3.88113H8.59216V3.27228L8.1643 3.70545L8.34216 3.88113ZM8.34216 8.61977H8.09216V8.86977H8.34216V8.61977ZM8.65811 8.61977V8.86977H8.90811V8.61977H8.65811ZM8.65811 3.8401L8.8349 3.66333L8.40811 3.23649V3.8401H8.65811ZM9.68536 4.86748L9.86508 4.69365L9.86215 4.69072L9.68536 4.86748ZM9.78815 4.86575L9.6152 4.68493L9.60809 4.69232L9.78815 4.86575ZM9.91873 4.74085L10.0917 4.92165L10.0983 4.91475L9.91873 4.74085ZM9.92015 4.63411L10.0999 4.46027L10.0969 4.45734L9.92015 4.63411ZM8.73054 3.4445L8.48296 3.47923L8.49458 3.5621L8.55376 3.62128L8.73054 3.4445ZM8.70902 3.40013L8.52666 3.57115L8.52852 3.5731L8.70902 3.40013ZM8.58997 3.27318L8.77234 3.10215L8.77 3.09971L8.58997 3.27318ZM8.48623 3.2716L8.66412 3.44731L8.66685 3.44445L8.48623 3.2716ZM7.16181 4.61244L6.98393 4.43674L6.98168 4.43909L7.16181 4.61244ZM5.81579 6.68563V6.43563H5.56579V6.68563H5.81579ZM5.81579 12.0541H5.56579V12.3041H5.81579V12.0541ZM7.71053 6.68563V6.93563H7.96053V6.68563H7.71053ZM7.71053 6.36984H7.96053V6.11984H7.71053V6.36984ZM5.5 6.36984V6.11984H5.25V6.36984H5.5ZM5.5 12.3698H5.25V12.6198H5.5V12.3698ZM11.5 12.3698V12.6198H11.75V12.3698H11.5ZM11.5 6.36984H11.75V6.11984H11.5V6.36984ZM9.28947 6.36984V6.11984H9.03947V6.36984H9.28947ZM9.28947 6.68563H9.03947V6.93563H9.28947V6.68563ZM11.1842 6.68563H11.4342V6.43563H11.1842V6.68563ZM11.1842 12.0541V12.3041H11.4342V12.0541H11.1842ZM7.46496 4.67622L7.3459 4.54927L6.98119 4.8913L7.10024 5.01825L7.46496 4.67622ZM7.2062 4.67545C7.28096 4.59777 7.39846 4.6068 7.4631 4.67425L7.1021 5.02021C7.22485 5.14829 7.43519 5.15858 7.56647 5.02216L7.2062 4.67545ZM8.1643 3.70545L7.20847 4.67313L7.5642 5.02449L8.52003 4.05682L8.1643 3.70545ZM8.09216 3.88113V8.61977H8.59216V3.88113H8.09216ZM8.34216 8.86977H8.65811V8.36977H8.34216V8.86977ZM8.90811 8.61977V3.8401H8.40811V8.61977H8.90811ZM8.48132 4.01686L9.50857 5.04425L9.86215 4.69072L8.8349 3.66333L8.48132 4.01686ZM9.50566 5.04129C9.63694 5.17702 9.84611 5.16594 9.96821 5.03917L9.60809 4.69232C9.6724 4.62555 9.78967 4.61574 9.86506 4.69368L9.50566 5.04129ZM9.96095 5.04641L10.0915 4.92152L9.74593 4.56019L9.61535 4.68508L9.96095 5.04641ZM10.0983 4.91475C10.2168 4.79238 10.2259 4.59061 10.0998 4.46029L9.74047 4.80794C9.6706 4.73572 9.67843 4.62963 9.73912 4.56695L10.0983 4.91475ZM10.0969 4.45734L8.90731 3.26772L8.55376 3.62128L9.74337 4.81089L10.0969 4.45734ZM8.52852 3.5731C8.50288 3.54635 8.48771 3.51307 8.48296 3.47923L8.97811 3.40977C8.96884 3.34368 8.93928 3.27908 8.88952 3.22715L8.52852 3.5731ZM8.40761 3.44419L8.52667 3.57114L8.89138 3.22911L8.77232 3.10216L8.40761 3.44419ZM8.66685 3.44445C8.59132 3.52337 8.47376 3.51288 8.40994 3.44664L8.77 3.09971C8.64775 2.97285 8.43735 2.96109 8.30561 3.09875L8.66685 3.44445ZM7.33967 4.78813L8.66409 3.44728L8.30837 3.09592L6.98395 4.43676L7.33967 4.78813ZM7.34359 4.54684C7.4023 4.60777 7.41226 4.71274 7.34194 4.7858L6.98168 4.43909C6.85484 4.57088 6.86669 4.77248 6.9835 4.89373L7.34359 4.54684ZM5.56579 6.68563V12.0541H6.06579V6.68563H5.56579ZM7.71053 6.43563H5.81579V6.93563H7.71053V6.43563ZM7.46053 6.36984V6.68563H7.96053V6.36984H7.46053ZM5.5 6.61984H7.71053V6.11984H5.5V6.61984ZM5.75 12.3698V6.36984H5.25V12.3698H5.75ZM11.5 12.1198H5.5V12.6198H11.5V12.1198ZM11.25 6.36984V12.3698H11.75V6.36984H11.25ZM9.28947 6.61984H11.5V6.11984H9.28947V6.61984ZM9.53947 6.68563V6.36984H9.03947V6.68563H9.53947ZM11.1842 6.43563H9.28947V6.93563H11.1842V6.43563ZM11.4342 12.0541V6.68563H10.9342V12.0541H11.4342ZM5.81579 12.3041H11.1842V11.8041H5.81579V12.3041Z" fill="white"/>
<circle cx="8.5" cy="8.5" r="7.5" stroke="white"/>
</svg>

