<svg width="17" height="17" viewBox="0 0 21 21" fill="none" xmlns="http://www.w3.org/2000/svg">
<path fill-rule="evenodd" clip-rule="evenodd" d="M14.7553 0C14.3098 0 14.0868 0.538571 14.4017 0.853553L15.8672 2.31902C16.0624 2.51422 16.0625 2.8307 15.8673 3.02598L0.146306 18.7596C-0.0488233 18.9548 -0.0487608 19.2713 0.146446 19.4665L1.28674 20.6068C1.48195 20.802 1.79842 20.8021 1.99371 20.607L17.7273 4.88592C17.9226 4.69079 18.239 4.69086 18.4342 4.88606L19.8997 6.35153C20.2147 6.66651 20.7533 6.44343 20.7533 5.99797V0.5C20.7533 0.223858 20.5294 0 20.2533 0H14.7553ZM8.06963 7.12667C8.2662 6.93148 8.26661 6.61367 8.07054 6.41797L1.99371 0.35287C1.79839 0.15793 1.48207 0.158083 1.28694 0.353212L0.146588 1.49357C-0.0486746 1.68883 -0.0486749 2.00541 0.146587 2.20067L6.2135 8.26759C6.40828 8.46236 6.7239 8.46292 6.91936 8.26884L8.06963 7.12667ZM19.9787 14.5922C20.2929 14.2765 20.832 14.4981 20.8331 14.9436L20.8473 20.4416C20.848 20.7177 20.6247 20.9421 20.3486 20.9428L14.8506 20.957C14.4052 20.9581 14.1807 20.4201 14.4949 20.1043L15.9498 18.6419C16.1471 18.4436 16.1433 18.1219 15.9413 17.9283L12.6381 14.7626C12.4357 14.5687 12.4323 14.2463 12.6305 14.0481L13.879 12.7996C14.075 12.6036 14.393 12.6045 14.5879 12.8015L17.81 16.0576C18.0053 16.255 18.3241 16.2554 18.5199 16.0585L19.9787 14.5922Z" fill="white"/>
</svg>
