<svg width="18" height="18" viewBox="0 0 15 15" fill="none" xmlns="http://www.w3.org/2000/svg">
<path fill-rule="evenodd" clip-rule="evenodd" d="M7.5 0C11.6394 0 15 3.36064 15 7.5C15 11.6394 11.6394 15 7.5 15C3.36064 15 0 11.6394 0 7.5C0 3.36064 3.36064 0 7.5 0ZM11.9917 5.2435C11.8838 4.84011 11.5662 4.5225 11.1628 4.41469C10.4317 4.21875 7.5 4.21875 7.5 4.21875C7.5 4.21875 4.56835 4.21875 3.83716 4.41469C3.43389 4.5225 3.11616 4.84011 3.00835 5.2435C2.8125 5.9746 2.8125 7.50006 2.8125 7.50006C2.8125 7.50006 2.8125 9.02546 3.00835 9.7565C3.11616 10.1599 3.43389 10.4776 3.83716 10.5854C4.56835 10.7812 7.5 10.7812 7.5 10.7812C7.5 10.7812 10.4317 10.7812 11.1628 10.5854C11.5662 10.4776 11.8838 10.1599 11.9917 9.7565C12.1875 9.02546 12.1875 7.50006 12.1875 7.50006C12.1875 7.50006 12.1875 5.9746 11.9917 5.2435ZM6.56247 8.90634V6.09378L8.99813 7.50006L6.56247 8.90634Z" fill="white"/>
</svg>
